<mxfile host="65bd71144e">
    <diagram id="fuHU8ZMXQaFaqXcTQXO6" name="Page-1">
        <mxGraphModel dx="2120" dy="942" grid="1" gridSize="10" guides="1" tooltips="1" connect="1" arrows="1" fold="1" page="1" pageScale="1" pageWidth="850" pageHeight="1100" math="0" shadow="0">
            <root>
                <mxCell id="0"/>
                <mxCell id="1" parent="0"/>
                <mxCell id="13" value="" style="rounded=0;whiteSpace=wrap;html=1;fontSize=30;" vertex="1" parent="1">
                    <mxGeometry x="40" y="100" width="760" height="350" as="geometry"/>
                </mxCell>
                <mxCell id="2" value="" style="rounded=0;whiteSpace=wrap;html=1;" vertex="1" parent="1">
                    <mxGeometry x="40" y="40" width="760" height="2160" as="geometry"/>
                </mxCell>
                <mxCell id="11" value="" style="html=1;whiteSpace=wrap;shape=isoCube2;backgroundOutline=1;isoAngle=15;fontSize=30;" vertex="1" parent="1">
                    <mxGeometry x="-30" y="240" width="140" height="140" as="geometry"/>
                </mxCell>
                <mxCell id="3" value="" style="rounded=0;whiteSpace=wrap;html=1;" vertex="1" parent="1">
                    <mxGeometry x="40" y="40" width="760" height="60" as="geometry"/>
                </mxCell>
                <mxCell id="5" value="Skills" style="text;html=1;strokeColor=none;fillColor=none;align=center;verticalAlign=middle;whiteSpace=wrap;rounded=0;strokeWidth=1;" vertex="1" parent="1">
                    <mxGeometry x="480" y="55" width="60" height="30" as="geometry"/>
                </mxCell>
                <mxCell id="6" value="Projects&lt;span style=&quot;color: rgba(0, 0, 0, 0); font-family: monospace; font-size: 0px; text-align: start;&quot;&gt;%3CmxGraphModel%3E%3Croot%3E%3CmxCell%20id%3D%220%22%2F%3E%3CmxCell%20id%3D%221%22%20parent%3D%220%22%2F%3E%3CmxCell%20id%3D%222%22%20value%3D%22About%22%20style%3D%22text%3Bhtml%3D1%3BstrokeColor%3Dnone%3BfillColor%3Dnone%3Balign%3Dcenter%3BverticalAlign%3Dmiddle%3BwhiteSpace%3Dwrap%3Brounded%3D0%3B%22%20vertex%3D%221%22%20parent%3D%221%22%3E%3CmxGeometry%20x%3D%22425%22%20y%3D%2255%22%20width%3D%2260%22%20height%3D%2230%22%20as%3D%22geometry%22%2F%3E%3C%2FmxCell%3E%3C%2Froot%3E%3C%2FmxGraphModel%3E&lt;/span&gt;&lt;span style=&quot;color: rgba(0, 0, 0, 0); font-family: monospace; font-size: 0px; text-align: start;&quot;&gt;%3CmxGraphModel%3E%3Croot%3E%3CmxCell%20id%3D%220%22%2F%3E%3CmxCell%20id%3D%221%22%20parent%3D%220%22%2F%3E%3CmxCell%20id%3D%222%22%20value%3D%22About%22%20style%3D%22text%3Bhtml%3D1%3BstrokeColor%3Dnone%3BfillColor%3Dnone%3Balign%3Dcenter%3BverticalAlign%3Dmiddle%3BwhiteSpace%3Dwrap%3Brounded%3D0%3B%22%20vertex%3D%221%22%20parent%3D%221%22%3E%3CmxGeometry%20x%3D%22425%22%20y%3D%2255%22%20width%3D%2260%22%20height%3D%2230%22%20as%3D%22geometry%22%2F%3E%3C%2FmxCell%3E%3C%2Froot%3E%3C%2FmxGraphModel%3E&lt;/span&gt;" style="text;html=1;strokeColor=none;fillColor=none;align=center;verticalAlign=middle;whiteSpace=wrap;rounded=0;" vertex="1" parent="1">
                    <mxGeometry x="580" y="55" width="60" height="30" as="geometry"/>
                </mxCell>
                <mxCell id="7" value="Contact" style="text;html=1;strokeColor=none;fillColor=none;align=center;verticalAlign=middle;whiteSpace=wrap;rounded=0;" vertex="1" parent="1">
                    <mxGeometry x="680" y="55" width="60" height="30" as="geometry"/>
                </mxCell>
                <mxCell id="8" value="&lt;h1 style=&quot;font-size: 60px;&quot;&gt;&lt;font style=&quot;font-size: 60px;&quot;&gt;PRANAV P K&lt;/font&gt;&lt;/h1&gt;&lt;div style=&quot;&quot;&gt;&lt;font style=&quot;font-size: 30px;&quot;&gt;STUDENT | LEARNER | DEVELOPER&lt;/font&gt;&lt;/div&gt;" style="text;html=1;strokeColor=none;fillColor=none;spacing=5;spacingTop=-20;whiteSpace=wrap;overflow=hidden;rounded=0;align=center;" vertex="1" parent="1">
                    <mxGeometry x="40" y="130" width="760" height="270" as="geometry"/>
                </mxCell>
                <mxCell id="9" value="Portfolio" style="text;html=1;strokeColor=none;fillColor=none;align=center;verticalAlign=middle;whiteSpace=wrap;rounded=0;" vertex="1" parent="1">
                    <mxGeometry x="80" y="55" width="60" height="30" as="geometry"/>
                </mxCell>
                <mxCell id="12" value="" style="html=1;whiteSpace=wrap;shape=isoCube2;backgroundOutline=1;isoAngle=15;fontSize=30;" vertex="1" parent="1">
                    <mxGeometry x="730" y="130" width="140" height="140" as="geometry"/>
                </mxCell>
                <mxCell id="20" value="ABOUT" style="text;html=1;align=center;verticalAlign=middle;whiteSpace=wrap;rounded=0;labelBorderColor=none;fontSize=30;strokeWidth=1;" vertex="1" parent="1">
                    <mxGeometry x="390" y="535" width="60" height="30" as="geometry"/>
                </mxCell>
                <mxCell id="22" value="&lt;h1 style=&quot;font-size: 30px;&quot;&gt;&lt;span style=&quot;background-color: initial; font-size: 30px; font-weight: normal;&quot;&gt;Lorem ipsum dolor sit amet, consectetur adipisicing elit, sed do eiusmod tempor incididunt ut labore et dolore magna aliqua.&lt;/span&gt;&lt;br style=&quot;font-size: 30px;&quot;&gt;&lt;/h1&gt;" style="text;html=1;strokeColor=none;fillColor=none;spacing=5;spacingTop=-20;whiteSpace=wrap;overflow=hidden;rounded=0;labelBorderColor=none;strokeWidth=1;fontSize=30;align=left;verticalAlign=top;" vertex="1" parent="1">
                    <mxGeometry x="100" y="610" width="340" height="310" as="geometry"/>
                </mxCell>
                <mxCell id="30" value="About" style="text;html=1;strokeColor=none;fillColor=none;align=center;verticalAlign=middle;whiteSpace=wrap;rounded=0;strokeWidth=1;" vertex="1" parent="1">
                    <mxGeometry x="380" y="55" width="60" height="30" as="geometry"/>
                </mxCell>
                <mxCell id="31" value="SKILLS" style="text;html=1;align=center;verticalAlign=middle;whiteSpace=wrap;rounded=0;labelBorderColor=none;fontSize=30;strokeWidth=1;" vertex="1" parent="1">
                    <mxGeometry x="380" y="990" width="60" height="30" as="geometry"/>
                </mxCell>
                <mxCell id="32" value="" style="rounded=1;whiteSpace=wrap;html=1;labelBorderColor=none;strokeWidth=1;fontSize=30;glass=0;shadow=0;" vertex="1" parent="1">
                    <mxGeometry x="90" y="1060" width="660" height="250" as="geometry"/>
                </mxCell>
                <mxCell id="33" value="LANGUAGES" style="rounded=0;whiteSpace=wrap;html=1;labelBorderColor=none;strokeWidth=1;fontSize=25;" vertex="1" parent="1">
                    <mxGeometry x="90" y="1060" width="220" height="60" as="geometry"/>
                </mxCell>
                <mxCell id="34" value="FRONTEND" style="rounded=0;whiteSpace=wrap;html=1;labelBorderColor=none;strokeWidth=1;fontSize=25;" vertex="1" parent="1">
                    <mxGeometry x="310" y="1060" width="220" height="60" as="geometry"/>
                </mxCell>
                <mxCell id="35" value="BACKEND" style="rounded=0;whiteSpace=wrap;html=1;labelBorderColor=none;strokeWidth=1;fontSize=25;" vertex="1" parent="1">
                    <mxGeometry x="530" y="1060" width="220" height="60" as="geometry"/>
                </mxCell>
                <mxCell id="36" value="" style="ellipse;whiteSpace=wrap;html=1;aspect=fixed;labelBorderColor=none;strokeWidth=1;fontSize=25;" vertex="1" parent="1">
                    <mxGeometry x="150" y="1170" width="80" height="80" as="geometry"/>
                </mxCell>
                <mxCell id="37" value="" style="ellipse;whiteSpace=wrap;html=1;aspect=fixed;labelBorderColor=none;strokeWidth=1;fontSize=25;" vertex="1" parent="1">
                    <mxGeometry x="300" y="1170" width="80" height="80" as="geometry"/>
                </mxCell>
                <mxCell id="38" value="" style="ellipse;whiteSpace=wrap;html=1;aspect=fixed;labelBorderColor=none;strokeWidth=1;fontSize=25;" vertex="1" parent="1">
                    <mxGeometry x="450" y="1170" width="80" height="80" as="geometry"/>
                </mxCell>
                <mxCell id="39" value="" style="ellipse;whiteSpace=wrap;html=1;aspect=fixed;labelBorderColor=none;strokeWidth=1;fontSize=25;" vertex="1" parent="1">
                    <mxGeometry x="600" y="1170" width="80" height="80" as="geometry"/>
                </mxCell>
                <mxCell id="40" value="PROJECTS" style="text;html=1;align=center;verticalAlign=middle;whiteSpace=wrap;rounded=0;labelBorderColor=none;fontSize=30;strokeWidth=1;" vertex="1" parent="1">
                    <mxGeometry x="390" y="1430" width="60" height="30" as="geometry"/>
                </mxCell>
                <mxCell id="41" value="" style="shape=image;html=1;verticalLabelPosition=bottom;verticalAlign=top;imageAspect=0;image=img/clipart/Gear_128x128.png;rounded=1;shadow=0;glass=0;labelBorderColor=none;sketch=1;strokeWidth=1;fontSize=25;" vertex="1" parent="1">
                    <mxGeometry x="490" y="590" width="200" height="260" as="geometry"/>
                </mxCell>
                <mxCell id="42" value="" style="shape=filledEdge;curved=0;rounded=0;fixDash=1;endArrow=none;strokeWidth=10;fillColor=#ffffff;edgeStyle=orthogonalEdgeStyle;html=1;fontSize=25;" edge="1" parent="1">
                    <mxGeometry width="60" height="40" relative="1" as="geometry">
                        <mxPoint x="360" y="870" as="sourcePoint"/>
                        <mxPoint x="420" y="830" as="targetPoint"/>
                        <Array as="points">
                            <mxPoint x="420" y="870"/>
                        </Array>
                    </mxGeometry>
                </mxCell>
                <mxCell id="44" value="" style="shape=filledEdge;curved=0;rounded=0;fixDash=1;endArrow=none;strokeWidth=10;fillColor=#ffffff;edgeStyle=orthogonalEdgeStyle;html=1;fontSize=25;" edge="1" parent="1">
                    <mxGeometry width="60" height="40" relative="1" as="geometry">
                        <mxPoint x="140.00333333333322" y="590" as="sourcePoint"/>
                        <mxPoint x="80.00333333333322" y="630" as="targetPoint"/>
                        <Array as="points">
                            <mxPoint x="80.00333333333322" y="590"/>
                        </Array>
                    </mxGeometry>
                </mxCell>
                <mxCell id="46" value="" style="rounded=1;whiteSpace=wrap;html=1;shadow=0;glass=0;labelBorderColor=none;strokeWidth=1;fontSize=25;" vertex="1" parent="1">
                    <mxGeometry x="90" y="1510" width="180" height="220" as="geometry"/>
                </mxCell>
                <mxCell id="50" value="" style="ellipse;whiteSpace=wrap;html=1;aspect=fixed;rounded=1;shadow=0;glass=0;labelBorderColor=none;sketch=0;strokeWidth=1;fontSize=25;" vertex="1" parent="1">
                    <mxGeometry x="155" y="1530" width="50" height="50" as="geometry"/>
                </mxCell>
                <mxCell id="51" value="Text" style="text;html=1;strokeColor=none;fillColor=none;align=center;verticalAlign=middle;whiteSpace=wrap;rounded=0;shadow=0;glass=0;labelBorderColor=none;sketch=0;strokeWidth=1;fontSize=25;" vertex="1" parent="1">
                    <mxGeometry x="150" y="1600" width="60" height="30" as="geometry"/>
                </mxCell>
                <mxCell id="53" value="&lt;h1 style=&quot;font-size: 12px;&quot;&gt;&lt;span style=&quot;background-color: initial; font-size: 12px; font-weight: normal;&quot;&gt;lpem ipsum dolor sit amet, consectetur adipisicing elit, sed do eiusmod tempor incididunt ut labore et dolore magna aliqua.&lt;/span&gt;&lt;br style=&quot;font-size: 12px;&quot;&gt;&lt;/h1&gt;" style="text;html=1;strokeColor=none;fillColor=none;spacing=5;spacingTop=-20;whiteSpace=wrap;overflow=hidden;rounded=0;shadow=0;glass=0;labelBorderColor=none;sketch=0;strokeWidth=1;fontSize=12;" vertex="1" parent="1">
                    <mxGeometry x="100" y="1640" width="160" height="70" as="geometry"/>
                </mxCell>
                <mxCell id="62" value="" style="rounded=1;whiteSpace=wrap;html=1;shadow=0;glass=0;labelBorderColor=none;strokeWidth=1;fontSize=25;" vertex="1" parent="1">
                    <mxGeometry x="290" y="1510" width="180" height="220" as="geometry"/>
                </mxCell>
                <mxCell id="63" value="" style="ellipse;whiteSpace=wrap;html=1;aspect=fixed;rounded=1;shadow=0;glass=0;labelBorderColor=none;sketch=0;strokeWidth=1;fontSize=25;" vertex="1" parent="1">
                    <mxGeometry x="355" y="1530" width="50" height="50" as="geometry"/>
                </mxCell>
                <mxCell id="64" value="Text" style="text;html=1;strokeColor=none;fillColor=none;align=center;verticalAlign=middle;whiteSpace=wrap;rounded=0;shadow=0;glass=0;labelBorderColor=none;sketch=0;strokeWidth=1;fontSize=25;" vertex="1" parent="1">
                    <mxGeometry x="350" y="1600" width="60" height="30" as="geometry"/>
                </mxCell>
                <mxCell id="65" value="&lt;h1 style=&quot;font-size: 12px;&quot;&gt;&lt;span style=&quot;background-color: initial; font-size: 12px; font-weight: normal;&quot;&gt;lpem ipsum dolor sit amet, consectetur adipisicing elit, sed do eiusmod tempor incididunt ut labore et dolore magna aliqua.&lt;/span&gt;&lt;br style=&quot;font-size: 12px;&quot;&gt;&lt;/h1&gt;" style="text;html=1;strokeColor=none;fillColor=none;spacing=5;spacingTop=-20;whiteSpace=wrap;overflow=hidden;rounded=0;shadow=0;glass=0;labelBorderColor=none;sketch=0;strokeWidth=1;fontSize=12;" vertex="1" parent="1">
                    <mxGeometry x="300" y="1640" width="160" height="70" as="geometry"/>
                </mxCell>
                <mxCell id="66" value="" style="rounded=1;whiteSpace=wrap;html=1;shadow=0;glass=0;labelBorderColor=none;strokeWidth=1;fontSize=25;" vertex="1" parent="1">
                    <mxGeometry x="490" y="1510" width="180" height="220" as="geometry"/>
                </mxCell>
                <mxCell id="67" value="" style="ellipse;whiteSpace=wrap;html=1;aspect=fixed;rounded=1;shadow=0;glass=0;labelBorderColor=none;sketch=0;strokeWidth=1;fontSize=25;" vertex="1" parent="1">
                    <mxGeometry x="555" y="1530" width="50" height="50" as="geometry"/>
                </mxCell>
                <mxCell id="68" value="Text" style="text;html=1;strokeColor=none;fillColor=none;align=center;verticalAlign=middle;whiteSpace=wrap;rounded=0;shadow=0;glass=0;labelBorderColor=none;sketch=0;strokeWidth=1;fontSize=25;" vertex="1" parent="1">
                    <mxGeometry x="550" y="1600" width="60" height="30" as="geometry"/>
                </mxCell>
                <mxCell id="69" value="&lt;h1 style=&quot;font-size: 12px;&quot;&gt;&lt;span style=&quot;background-color: initial; font-size: 12px; font-weight: normal;&quot;&gt;lpem ipsum dolor sit amet, consectetur adipisicing elit, sed do eiusmod tempor incididunt ut labore et dolore magna aliqua.&lt;/span&gt;&lt;br style=&quot;font-size: 12px;&quot;&gt;&lt;/h1&gt;" style="text;html=1;strokeColor=none;fillColor=none;spacing=5;spacingTop=-20;whiteSpace=wrap;overflow=hidden;rounded=0;shadow=0;glass=0;labelBorderColor=none;sketch=0;strokeWidth=1;fontSize=12;" vertex="1" parent="1">
                    <mxGeometry x="500" y="1640" width="160" height="70" as="geometry"/>
                </mxCell>
                <mxCell id="70" value="" style="rounded=1;whiteSpace=wrap;html=1;shadow=0;glass=0;labelBorderColor=none;strokeWidth=1;fontSize=25;" vertex="1" parent="1">
                    <mxGeometry x="690" y="1510" width="180" height="220" as="geometry"/>
                </mxCell>
                <mxCell id="71" value="" style="ellipse;whiteSpace=wrap;html=1;aspect=fixed;rounded=1;shadow=0;glass=0;labelBorderColor=none;sketch=0;strokeWidth=1;fontSize=25;" vertex="1" parent="1">
                    <mxGeometry x="755" y="1530" width="50" height="50" as="geometry"/>
                </mxCell>
                <mxCell id="72" value="Text" style="text;html=1;strokeColor=none;fillColor=none;align=center;verticalAlign=middle;whiteSpace=wrap;rounded=0;shadow=0;glass=0;labelBorderColor=none;sketch=0;strokeWidth=1;fontSize=25;" vertex="1" parent="1">
                    <mxGeometry x="750" y="1600" width="60" height="30" as="geometry"/>
                </mxCell>
                <mxCell id="73" value="&lt;h1 style=&quot;font-size: 12px;&quot;&gt;&lt;span style=&quot;background-color: initial; font-size: 12px; font-weight: normal;&quot;&gt;lpem ipsum dolor sit amet, consectetur adipisicing elit, sed do eiusmod tempor incididunt ut labore et dolore magna aliqua.&lt;/span&gt;&lt;br style=&quot;font-size: 12px;&quot;&gt;&lt;/h1&gt;" style="text;html=1;strokeColor=none;fillColor=none;spacing=5;spacingTop=-20;whiteSpace=wrap;overflow=hidden;rounded=0;shadow=0;glass=0;labelBorderColor=none;sketch=0;strokeWidth=1;fontSize=12;" vertex="1" parent="1">
                    <mxGeometry x="700" y="1640" width="160" height="70" as="geometry"/>
                </mxCell>
                <mxCell id="74" value="CONTACT" style="text;html=1;align=center;verticalAlign=middle;whiteSpace=wrap;rounded=0;labelBorderColor=none;fontSize=30;strokeWidth=1;" vertex="1" parent="1">
                    <mxGeometry x="390" y="1840" width="60" height="30" as="geometry"/>
                </mxCell>
                <mxCell id="86" value="" style="group" vertex="1" connectable="0" parent="1">
                    <mxGeometry x="200" y="1900" width="390" height="170" as="geometry"/>
                </mxCell>
                <mxCell id="76" value="Mail ME➡️" style="rounded=1;whiteSpace=wrap;html=1;shadow=0;glass=0;labelBorderColor=none;sketch=0;strokeWidth=1;fontSize=20;" vertex="1" parent="86">
                    <mxGeometry y="10" width="140" height="60" as="geometry"/>
                </mxCell>
                <mxCell id="77" value="Reach ME⬇️" style="rounded=1;whiteSpace=wrap;html=1;shadow=0;glass=0;labelBorderColor=none;sketch=0;strokeWidth=1;fontSize=20;verticalAlign=top;" vertex="1" parent="86">
                    <mxGeometry y="90" width="140" height="80" as="geometry"/>
                </mxCell>
                <mxCell id="78" value="" style="ellipse;whiteSpace=wrap;html=1;aspect=fixed;rounded=1;shadow=0;glass=0;labelBorderColor=none;sketch=0;strokeWidth=1;fontSize=20;" vertex="1" parent="86">
                    <mxGeometry x="10" y="130" width="30" height="30" as="geometry"/>
                </mxCell>
                <mxCell id="79" value="" style="ellipse;whiteSpace=wrap;html=1;aspect=fixed;rounded=1;shadow=0;glass=0;labelBorderColor=none;sketch=0;strokeWidth=1;fontSize=20;" vertex="1" parent="86">
                    <mxGeometry x="55" y="130" width="30" height="30" as="geometry"/>
                </mxCell>
                <mxCell id="80" value="" style="ellipse;whiteSpace=wrap;html=1;aspect=fixed;rounded=1;shadow=0;glass=0;labelBorderColor=none;sketch=0;strokeWidth=1;fontSize=20;" vertex="1" parent="86">
                    <mxGeometry x="100" y="130" width="30" height="30" as="geometry"/>
                </mxCell>
                <mxCell id="81" value="" style="rounded=1;whiteSpace=wrap;html=1;shadow=0;glass=0;labelBorderColor=none;sketch=0;strokeWidth=1;fontSize=20;" vertex="1" parent="86">
                    <mxGeometry x="190" width="200" height="170" as="geometry"/>
                </mxCell>
                <mxCell id="83" value="Name" style="rounded=0;whiteSpace=wrap;html=1;shadow=0;glass=0;labelBorderColor=none;sketch=0;strokeWidth=1;fontSize=20;align=left;" vertex="1" parent="86">
                    <mxGeometry x="210" y="10" width="160" height="30" as="geometry"/>
                </mxCell>
                <mxCell id="84" value="Email ID" style="rounded=0;whiteSpace=wrap;html=1;shadow=0;glass=0;labelBorderColor=none;sketch=0;strokeWidth=1;fontSize=20;align=left;" vertex="1" parent="86">
                    <mxGeometry x="210" y="50" width="160" height="30" as="geometry"/>
                </mxCell>
                <mxCell id="85" value="Message" style="rounded=0;whiteSpace=wrap;html=1;shadow=0;glass=0;labelBorderColor=none;sketch=0;strokeWidth=1;fontSize=20;align=left;" vertex="1" parent="86">
                    <mxGeometry x="210" y="90" width="160" height="70" as="geometry"/>
                </mxCell>
            </root>
        </mxGraphModel>
    </diagram>
</mxfile>